<svg xmlns="http://www.w3.org/2000/svg" xmlns:xlink="http://www.w3.org/1999/xlink" xmlns:a="http://ns.adobe.com/AdobeSVGViewerExtensions/3.0/" version="1.1" x="0px" y="0px" width="485px" height="48px" viewBox="-4.644 -6.209 485 48" overflow="visible" enable-background="new -4.644 -6.209 485 48" xml:space="preserve"><defs></defs><path d="M4.552 2.267v30.167H0V2.267H4.552z"/><path d="M37.659 6.741l-3.692 2.188c-0.69-1.198-1.348-1.979-1.973-2.344c-0.651-0.417-1.492-0.625-2.521-0.625 c-1.264 0-2.312 0.358-3.146 1.076c-0.834 0.704-1.25 1.589-1.25 2.659c0 1.5 1.1 2.7 3.3 3.558l3.009 1.2 c2.449 1 4.2 2.2 5.4 3.626c1.133 1.4 1.7 3.2 1.7 5.251c0 2.775-0.925 5.07-2.774 6.9 c-1.863 1.826-4.175 2.738-6.936 2.738c-2.618 0-4.78-0.779-6.486-2.338c-1.68-1.555-2.729-3.738-3.146-6.553l4.611-1.016 c0.208 1.8 0.6 3 1.1 3.674c0.938 1.3 2.3 2 4.1 1.953c1.42 0 2.599-0.477 3.537-1.426 c0.938-0.949 1.407-2.152 1.407-3.611c0-0.585-0.082-1.123-0.244-1.611c-0.163-0.488-0.417-0.938-0.762-1.346 c-0.345-0.41-0.791-0.795-1.338-1.152c-0.547-0.359-1.198-0.701-1.954-1.026l-2.911-1.209c-4.129-1.744-6.193-4.295-6.193-7.654 c0-2.263 0.866-4.158 2.599-5.68c1.732-1.536 3.888-2.304 6.467-2.304C32.989 1.7 35.7 3.4 37.7 6.741z"/><path d="M49.629 17.213c0-4.246 1.557-7.893 4.669-10.941c3.1-3.048 6.825-4.572 11.176-4.572c4.298 0 8 1.5 11.1 4.6 c3.087 3.1 4.6 6.8 4.6 11.078c0 4.338-1.55 8.018-4.65 11.039c-3.113 3.035-6.871 4.553-11.273 4.6 c-3.894 0-7.392-1.35-10.492-4.045C51.335 26 49.6 22 49.6 17.213z M54.22 17.262c0 3.3 1.1 6.1 3.4 8.2 c2.228 2.1 4.8 3.2 7.7 3.221c3.165 0 5.835-1.092 8.01-3.279c2.175-2.213 3.263-4.907 3.263-8.082 c0-3.214-1.075-5.909-3.224-8.082c-2.136-2.187-4.78-3.279-7.932-3.279c-3.139 0-5.79 1.093-7.952 3.3 C55.301 11.4 54.2 14.1 54.2 17.262z"/><path d="M99.442 2.267v25.888h8.87v4.279H94.89V2.267H99.442z"/><path d="M142.436 25.105h-12.915l-3.36 7.328h-4.904l14.927-32.062l14.399 32.062h-4.981L142.436 25.105z M140.58 20.8 l-4.474-10.257l-4.689 10.257H140.58z"/><path d="M172.198 6.545v25.888h-4.552V6.545h-6.937V2.267h18.405v4.279H172.198z"/><path d="M211.029 6.545h-12.094v7.249h11.742v4.278h-11.742v10.082h12.094v4.279h-16.646V2.267h16.646V6.545z"/><path d="M257.219 15.65l5.432 6.565l0.176-0.195c0.586-0.639 1.141-1.264 1.662-1.876c0.52-0.612 1.021-1.231 1.504-1.856 l2.969 3.048c-0.363 0.521-0.844 1.126-1.436 1.816s-1.299 1.484-2.119 2.383l5.588 6.898h-5.666l-3.01-3.693 c-2.762 2.852-5.633 4.279-8.615 4.279c-2.67 0-4.938-0.854-6.799-2.561c-1.824-1.719-2.736-3.842-2.736-6.369 c0-3.008 1.445-5.509 4.338-7.502l1.973-1.348c0.027-0.013 0.072-0.046 0.137-0.098c0.066-0.052 0.156-0.124 0.273-0.215 c-1.992-2.123-2.988-4.213-2.988-6.271c0-2.032 0.664-3.686 1.992-4.962c1.355-1.276 3.1-1.915 5.236-1.915 c2.07 0 3.8 0.6 5.1 1.856c1.354 1.2 2 2.8 2 4.689c0 1.302-0.371 2.481-1.113 3.5 C260.458 12.9 259.1 14.2 257.2 15.65z M253.606 18.209l-0.254 0.176c-1.863 1.289-3.133 2.325-3.811 3.1 c-0.664 0.781-0.996 1.607-0.996 2.48c0 1.2 0.5 2.4 1.5 3.439c1.043 1 2.2 1.5 3.4 1.5 c1.758 0 3.783-1.152 6.076-3.459L253.606 18.209z M254.583 12.446l0.371-0.273c0.639-0.482 1.166-0.902 1.582-1.26 c0.418-0.358 0.717-0.661 0.898-0.909c0.391-0.482 0.586-1.075 0.586-1.778c0-0.794-0.266-1.439-0.801-1.934 c-0.533-0.495-1.25-0.743-2.148-0.743c-0.82 0-1.512 0.254-2.07 0.762c-0.561 0.482-0.842 1.101-0.842 1.9 c0 0.9 0.4 1.8 1.1 2.618l1.133 1.368C254.387 12.2 254.5 12.3 254.6 12.446z"/><path d="M303.762 32.434V2.267h4.533c2.018 0 3.6 0.2 4.8 0.469c1.213 0.3 2.2 0.8 3.1 1.6 c0.846 0.8 1.5 1.7 2 2.872c0.508 1.2 0.8 2.3 0.8 3.517c0 2.163-0.826 3.992-2.48 5.5 c1.602 0.5 2.9 1.5 3.8 2.872c0.938 1.4 1.4 2.9 1.4 4.729c0 2.357-0.834 4.35-2.502 6 c-1.002 1.004-2.129 1.699-3.379 2.09c-1.367 0.379-3.08 0.568-5.139 0.568H303.762z M308.315 15.22h1.426 c1.693 0 2.934-0.375 3.721-1.124c0.789-0.749 1.184-1.853 1.184-3.312c0-1.42-0.404-2.498-1.213-3.234 c-0.807-0.736-1.979-1.104-3.516-1.104h-1.602V15.22z M308.315 28.154h2.812c2.059 0 3.568-0.404 4.533-1.211 c1.016-0.873 1.523-1.98 1.523-3.322c0-1.303-0.488-2.396-1.465-3.282c-0.951-0.872-2.65-1.31-5.1-1.31h-2.305V28.154z"/><path d="M340.776 2.267v25.888h8.869v4.279h-13.422V2.267H340.776z"/><path d="M359.233 17.213c0-4.246 1.557-7.893 4.67-10.941c3.1-3.048 6.824-4.572 11.174-4.572c4.299 0 8 1.5 11.1 4.6 c3.088 3.1 4.6 6.8 4.6 11.078c0 4.338-1.551 8.018-4.65 11.039c-3.113 3.035-6.871 4.553-11.273 4.6 c-3.895 0-7.391-1.35-10.49-4.045C360.938 26 359.2 22 359.2 17.213z M363.825 17.262c0 3.3 1.1 6.1 3.4 8.2 c2.227 2.1 4.8 3.2 7.7 3.221c3.166 0 5.836-1.092 8.012-3.279c2.174-2.213 3.262-4.907 3.262-8.082 c0-3.214-1.074-5.909-3.223-8.082c-2.137-2.187-4.781-3.279-7.934-3.279c-3.139 0-5.789 1.093-7.951 3.3 C364.905 11.4 363.8 14.1 363.8 17.262z"/><path d="M401.389 17.213c0-4.246 1.555-7.893 4.668-10.941c3.1-3.048 6.826-4.572 11.176-4.572c4.299 0 8 1.5 11.1 4.6 c3.088 3.1 4.6 6.8 4.6 11.078c0 4.338-1.551 8.018-4.65 11.039c-3.113 3.035-6.871 4.553-11.273 4.6 c-3.895 0-7.391-1.35-10.492-4.045C403.094 26 401.4 22 401.4 17.213z M405.979 17.262c0 3.3 1.1 6.1 3.4 8.2 c2.227 2.1 4.8 3.2 7.7 3.221c3.166 0 5.836-1.092 8.01-3.279c2.176-2.213 3.264-4.907 3.264-8.082 c0-3.214-1.074-5.909-3.223-8.082c-2.137-2.187-4.781-3.279-7.934-3.279c-3.139 0-5.789 1.093-7.951 3.3 C407.061 11.4 406 14.1 406 17.262z"/><path d="M443.192 32.434L449.542 0l10.355 23.445L470.624 0l5.705 32.434h-4.67l-2.912-18.21l-8.928 19.597l-8.674-19.616 l-3.244 18.229H443.192z"/></svg>