<svg xmlns="http://www.w3.org/2000/svg" xmlns:xlink="http://www.w3.org/1999/xlink" xmlns:a="http://ns.adobe.com/AdobeSVGViewerExtensions/3.0/" version="1.1" x="0px" y="0px" width="152px" height="134px" viewBox="-3.881 -4.843 152 134" overflow="visible" enable-background="new -3.881 -4.843 152 134" xml:space="preserve"><style>.style0{fill:	#FFFFFF;}</style><defs></defs><path d="M72.259 0L0 123.157h144.518L72.259 0z M90.187 90.673l-0.161-0.877l21.023-8.025l-7.951 16.5 L90.187 90.673z M102.244 100.062l-7.485 15.555l-4.105-22.393L102.244 100.062z M51.749 83.29l9.13-7.637l16.163 9.538l-3.653 8.9 l-28.287 10.797L51.749 83.29z M42.777 105.736l-4.152 1.585l0.166-13.195l10.193-8.524L42.777 105.736z M52.811 79.844l2.335-7.573 l3.941 2.326L52.811 79.844z M84.067 68.161l-6.27 15.201l-15.323-9.044l19.701-16.475L84.067 68.161z M83.902 56.398l7.658-6.404 l-6.114 14.823L83.902 56.398z M78.748 86.198l5.976 3.525l-8.818 3.367L78.748 86.198z M79.503 84.369l5.216-12.647l3.086 16.8 l-0.74 0.284L79.503 84.369z M89.666 87.836l-3.568-19.458l7.936-19.237l17.752 30.253L89.666 87.836z M83.496 54.182l-6.134-33.456 L92.55 46.611L83.496 54.182z M81.769 55.627L60.683 73.262l-4.943-2.916l17.478-56.684l1.249 2.126L81.769 55.627z M54.003 69.3 l-11.409-6.733l28.42-48.441L54.003 69.321z M53.41 71.245l-3.364 10.911l-11.223 9.386l0.289-23.021l2.49-4.242L53.41 71.245z M36.842 93.199l-23.97 20.047l24.237-41.311L36.842 93.199z M36.81 95.517l-0.155 12.158l-25.187 9.482h-0.85L36.81 95.517z M36.629 109.648l-0.095 7.509H16.96L36.629 109.648z M38.494 117.157l0.104-7.994l3.445-1.447l-2.952 9.441H38.494z M44.369 107 l27.994-10.818l-8.723 21.016H41.143L44.369 106.96z M74.879 95.313l12.001-4.449l1.54 0.71l4.728 25.583H65.76L74.879 95.313z M103.939 100.533l28.168 16.624H95.938L103.939 100.533z M104.792 99.292l8.411-17.479l20.141 34.329L104.792 99.292z" class="style0"/></svg>